<svg width="26" height="25" viewBox="0 0 26 25" fill="none" xmlns="http://www.w3.org/2000/svg">
<path d="M18 6L24 6" stroke="white" stroke-width="1.5" stroke-linecap="round"/>
<path d="M21 9L21 3" stroke="white" stroke-width="1.5" stroke-linecap="round"/>
<g clip-path="url(#clip0_40_302)">
<path d="M12 6.99856C12 6.68918 11.8594 6.39856 11.6156 6.21106C11.3719 6.02356 11.0563 5.95481 10.7563 6.02981L5.13438 7.43606C4.46875 7.60168 4 8.20168 4 8.88918V19.9986H3C2.44687 19.9986 2 20.4454 2 20.9986C2 21.5517 2.44687 21.9986 3 21.9986H5H11H12V20.9986V6.99856ZM10 13.9986C10 14.5517 9.66563 14.9986 9.25 14.9986C8.83437 14.9986 8.5 14.5517 8.5 13.9986C8.5 13.4454 8.83437 12.9986 9.25 12.9986C9.66563 12.9986 10 13.4454 10 13.9986ZM13 9.99856H16V20.9986C16 21.5517 16.4469 21.9986 17 21.9986H19C19.5531 21.9986 20 21.5517 20 20.9986C20 20.4454 19.5531 19.9986 19 19.9986H18V9.99856C18 8.89543 17.1031 7.99856 16 7.99856H13V9.99856Z" fill="white"/>
</g>
<defs>
<clipPath id="clip0_40_302">
<rect width="18" height="16" fill="white" transform="translate(0 6)"/>
</clipPath>
</defs>
</svg>
