<svg width="35" height="32" viewBox="0 0 35 32" fill="none" xmlns="http://www.w3.org/2000/svg">
<path fill-rule="evenodd" clip-rule="evenodd" d="M31.7075 15.475H28.591L28.6441 27.9875C28.6441 27.9887 28.6441 27.99 28.6441 27.9912C28.644 28.0422 28.6401 28.1155 28.6282 28.2252L28.6138 28.3591V29.5H27.7107L27.6933 29.5L27.5351 29.4852L27.3389 29.4996C27.3382 29.4996 27.3375 29.4996 27.3366 29.4996L27.3072 29.4999L27.2549 29.5H23.8907V24C23.8907 21.5797 21.9681 19.5 19.4461 19.5H15.5569C13.0348 19.5 11.1123 21.5797 11.1123 24V29.5H7.78964C7.78745 29.4999 7.78309 29.4997 7.77619 29.4994C7.75549 29.4983 7.73122 29.4967 7.68207 29.4934L7.48969 29.4802L7.27353 29.4987L7.2576 29.5H6.38922V22.5159L6.3953 22.4597V15.475H3.23044L17.5286 2.65651L31.7075 15.475ZM18.8019 0.4375C18.4373 0.125 17.9512 0 17.5258 0C17.1004 0 16.6143 0.0625 16.1889 0.5L0.607691 14.4688C0.182307 14.9062 0 15.4062 0 15.9688C0 17.1 0.850767 17.975 1.94461 17.975H3.8953V22.325C3.88922 22.3813 3.88922 22.4438 3.88922 22.5V29.5C3.88922 30.8813 4.97699 32 6.31998 32H7.29229C7.36521 32 7.43813 31.9937 7.51106 31.9875C7.60221 31.9937 7.69336 32 7.78452 32H11.1815C12.5245 32 13.6123 30.8813 13.6123 29.5V24C13.6123 22.8937 14.4813 22 15.5569 22H19.4461C20.5217 22 21.3907 22.8937 21.3907 24V29.5C21.3907 30.8813 22.4785 32 23.8215 32H27.2549C27.34 32 27.4251 32 27.5102 31.9937C27.577 32 27.6438 32 27.7107 32H28.683C30.026 32 31.1138 30.8813 31.1138 29.5V28.4937C31.132 28.325 31.1441 28.1562 31.1441 27.9875L31.1016 17.975H33.0462C33.107 17.975 33.1674 17.9719 33.2272 17.966C34.1834 17.8704 34.9908 17.0275 34.9908 15.9688C35.0516 15.4062 34.8085 14.9062 34.3224 14.4688L18.8019 0.4375Z" fill="white"/>
</svg>
