<svg width="45" height="45" viewBox="0 0 45 45" fill="none" xmlns="http://www.w3.org/2000/svg">
<path d="M10 15C10.7956 15 11.5587 14.6839 12.1213 14.1213C12.6839 13.5587 13 12.7956 13 12C13 11.2044 12.6839 10.4413 12.1213 9.87868C11.5587 9.31607 10.7956 9 10 9C9.20435 9 8.44129 9.31607 7.87868 9.87868C7.31607 10.4413 7 11.2044 7 12C7 12.7956 7.31607 13.5587 7.87868 14.1213C8.44129 14.6839 9.20435 15 10 15ZM18 10C16.8937 10 16 10.8937 16 12C16 13.1063 16.8937 14 18 14H36C37.1063 14 38 13.1063 38 12C38 10.8937 37.1063 10 36 10H18ZM18 20C16.8937 20 16 20.8937 16 22C16 23.1063 16.8937 24 18 24H36C37.1063 24 38 23.1063 38 22C38 20.8937 37.1063 20 36 20H18ZM18 30C16.8937 30 16 30.8937 16 32C16 33.1063 16.8937 34 18 34H36C37.1063 34 38 33.1063 38 32C38 30.8937 37.1063 30 36 30H18ZM10 35C10.7956 35 11.5587 34.6839 12.1213 34.1213C12.6839 33.5587 13 32.7956 13 32C13 31.2044 12.6839 30.4413 12.1213 29.8787C11.5587 29.3161 10.7956 29 10 29C9.20435 29 8.44129 29.3161 7.87868 29.8787C7.31607 30.4413 7 31.2044 7 32C7 32.7956 7.31607 33.5587 7.87868 34.1213C8.44129 34.6839 9.20435 35 10 35ZM13 22C13 21.606 12.9224 21.2159 12.7716 20.8519C12.6209 20.488 12.3999 20.1573 12.1213 19.8787C11.8427 19.6001 11.512 19.3791 11.1481 19.2284C10.7841 19.0776 10.394 19 10 19C9.60603 19 9.21593 19.0776 8.85195 19.2284C8.48797 19.3791 8.15726 19.6001 7.87868 19.8787C7.6001 20.1573 7.37913 20.488 7.22836 20.8519C7.0776 21.2159 7 21.606 7 22C7 22.394 7.0776 22.7841 7.22836 23.1481C7.37913 23.512 7.6001 23.8427 7.87868 24.1213C8.15726 24.3999 8.48797 24.6209 8.85195 24.7716C9.21593 24.9224 9.60603 25 10 25C10.394 25 10.7841 24.9224 11.1481 24.7716C11.512 24.6209 11.8427 24.3999 12.1213 24.1213C12.3999 23.8427 12.6209 23.512 12.7716 23.1481C12.9224 22.7841 13 22.394 13 22Z" fill="white"/>
</svg>
