<svg width="65" height="65" viewBox="0 0 65 65" fill="none" xmlns="http://www.w3.org/2000/svg">
<rect width="65" height="65" rx="19" fill="url(#paint0_linear_40_815)"/>
<g clip-path="url(#clip0_40_815)">
<path d="M46.2693 18.3568C46.7281 18.6966 47 19.2404 47 19.8124V23.8906V38.8437C47 41.3472 44.5645 43.3749 41.5625 43.3749C38.5605 43.3749 36.125 41.3472 36.125 38.8437C36.125 36.3402 38.5605 34.3124 41.5625 34.3124C42.1969 34.3124 42.8086 34.4031 43.375 34.573V26.3261L28.875 30.6761V42.4687C28.875 44.9722 26.4395 46.9999 23.4375 46.9999C20.4355 46.9999 18 44.9722 18 42.4687C18 39.9652 20.4355 37.9374 23.4375 37.9374C24.0719 37.9374 24.6836 38.0281 25.25 38.198V29.3281V25.2499C25.25 24.4513 25.7768 23.7433 26.5414 23.5111L44.6664 18.0736C45.2158 17.9093 45.8105 18.0113 46.2693 18.3568Z" fill="white"/>
</g>
<defs>
<linearGradient id="paint0_linear_40_815" x1="44" y1="11" x2="13.5" y2="103.5" gradientUnits="userSpaceOnUse">
<stop stop-color="#59D4FA"/>
<stop offset="1" stop-color="white"/>
</linearGradient>
<clipPath id="clip0_40_815">
<rect width="29" height="29" fill="white" transform="translate(18 18)"/>
</clipPath>
</defs>
</svg>
