<svg width="21" height="21" viewBox="0 0 21 21" fill="none" xmlns="http://www.w3.org/2000/svg">
<path d="M9.92216 5.02098C10.5869 5.13704 11.019 5.70172 10.8861 6.28203L10.8273 6.53647C10.6918 7.1324 10.4412 7.69931 10.0909 8.21489H13.7727C14.4503 8.21489 15 8.69476 15 9.28622C15 9.69913 14.7315 10.0585 14.3378 10.237C14.6165 10.4334 14.7955 10.7348 14.7955 11.0718C14.7955 11.5941 14.3659 12.0293 13.8009 12.123C13.9134 12.286 13.9773 12.4757 13.9773 12.6788C13.9773 13.1542 13.6219 13.5582 13.131 13.6965C13.1489 13.7702 13.1591 13.8483 13.1591 13.9287C13.1591 14.5201 12.6094 15 11.9318 15H9.43892C8.95312 15 8.48011 14.875 8.07614 14.6407L7.09176 14.067C6.40909 13.6698 6 13.0002 6 12.2837V11.4289V10.3576V9.8018C6 9.15008 6.34006 8.53629 6.92045 8.12785L7.10966 7.99616C7.78722 7.52299 8.25 6.85787 8.41875 6.11686L8.47756 5.86242C8.61051 5.28212 9.25739 4.90492 9.92216 5.02098Z" fill="white"/>
<path fill-rule="evenodd" clip-rule="evenodd" d="M10.5 19.6C15.5258 19.6 19.6 15.5258 19.6 10.5C19.6 5.47421 15.5258 1.4 10.5 1.4C5.47421 1.4 1.4 5.47421 1.4 10.5C1.4 15.5258 5.47421 19.6 10.5 19.6ZM10.5 21C16.299 21 21 16.299 21 10.5C21 4.70101 16.299 0 10.5 0C4.70101 0 0 4.70101 0 10.5C0 16.299 4.70101 21 10.5 21Z" fill="white"/>
</svg>
