<svg width="16" height="16" viewBox="0 0 16 16" fill="none" xmlns="http://www.w3.org/2000/svg">
<path d="M11.3465 0.58653L9.83235 2.10056L13.8993 6.16717L15.4134 4.65314C16.1955 3.8711 16.1955 2.60419 15.4134 1.82215L14.1808 0.58653C13.3987 -0.19551 12.1317 -0.19551 11.3496 0.58653H11.3465ZM9.12533 2.80752L1.83303 10.1024C1.50767 10.4277 1.26991 10.8313 1.13852 11.2723L0.0310672 15.0355C-0.0471429 15.3014 0.0248104 15.5861 0.218771 15.78C0.412732 15.9739 0.697417 16.0459 0.960203 15.9708L4.72367 14.8635C5.16478 14.7321 5.56834 14.4943 5.89369 14.169L13.1923 6.87413L9.12533 2.80752Z" fill="white"/>
</svg>
