<svg width="35" height="28" viewBox="0 0 35 28" fill="none" xmlns="http://www.w3.org/2000/svg">
<g clip-path="url(#clip0_67_610)">
<path d="M15.8333 8.75C15.8333 7.68637 15.3943 6.66631 14.6129 5.91421C13.8315 5.16211 12.7717 4.73959 11.6667 4.73959C10.5616 4.73959 9.50179 5.16211 8.72039 5.91421C7.93899 6.66631 7.5 7.68637 7.5 8.75C7.5 9.81363 7.93899 10.8337 8.72039 11.5858C9.50179 12.3379 10.5616 12.7604 11.6667 12.7604C12.7717 12.7604 13.8315 12.3379 14.6129 11.5858C15.3943 10.8337 15.8333 9.81363 15.8333 8.75ZM5 8.75C5 7.0482 5.70238 5.41609 6.95262 4.21273C8.20286 3.00938 9.89856 2.33334 11.6667 2.33334C13.4348 2.33334 15.1305 3.00938 16.3807 4.21273C17.631 5.41609 18.3333 7.0482 18.3333 8.75C18.3333 10.4518 17.631 12.0839 16.3807 13.2873C15.1305 14.4906 13.4348 15.1667 11.6667 15.1667C9.89856 15.1667 8.20286 14.4906 6.95262 13.2873C5.70238 12.0839 5 10.4518 5 8.75ZM2.56771 25.5938H20.7656C20.3021 22.4205 17.4688 19.9792 14.0469 19.9792H9.28646C5.86458 19.9792 3.03125 22.4205 2.56771 25.5938ZM0 26.5111C0 21.5733 4.15625 17.5729 9.28646 17.5729H14.0469C19.1771 17.5729 23.3333 21.5733 23.3333 26.5111C23.3333 27.3333 22.6406 28 21.7865 28H1.54688C0.692708 28 0 27.3333 0 26.5111Z" fill="white"/>
</g>
<g clip-path="url(#clip1_67_610)">
<path d="M29.75 4.375C29.75 3.6498 29.4427 2.9543 28.8957 2.4415C28.3487 1.92871 27.6068 1.64063 26.8333 1.64062C26.0597 1.64063 25.3179 1.92871 24.7709 2.4415C24.2239 2.9543 23.9166 3.6498 23.9166 4.375C23.9166 5.1002 24.2239 5.7957 24.7709 6.3085C25.3179 6.82129 26.0597 7.10937 26.8333 7.10938C27.6068 7.10937 28.3487 6.82129 28.8957 6.3085C29.4427 5.7957 29.75 5.1002 29.75 4.375ZM22.1666 4.375C22.1666 3.21468 22.6583 2.10188 23.5335 1.28141C24.4086 0.460936 25.5956 0 26.8333 0C28.071 0 29.258 0.460936 30.1331 1.28141C31.0083 2.10188 31.5 3.21468 31.5 4.375C31.5 5.53532 31.0083 6.64812 30.1331 7.46859C29.258 8.28906 28.071 8.75 26.8333 8.75C25.5956 8.75 24.4086 8.28906 23.5335 7.46859C22.6583 6.64812 22.1666 5.53532 22.1666 4.375ZM20.464 15.8594H33.2026C32.8781 13.6958 30.8948 12.0312 28.4994 12.0312H25.1671C22.7718 12.0312 20.7885 13.6958 20.464 15.8594ZM18.6666 16.4849C18.6666 13.1182 21.576 10.3906 25.1671 10.3906H28.4994C32.0906 10.3906 35 13.1182 35 16.4849C35 17.0454 34.5151 17.5 33.9171 17.5H19.7494C19.1515 17.5 18.6666 17.0454 18.6666 16.4849Z" fill="white"/>
</g>
<defs>
<clipPath id="clip0_67_610">
<rect width="23.3333" height="25.6667" fill="white" transform="translate(0 2.33334)"/>
</clipPath>
<clipPath id="clip1_67_610">
<rect width="16.3333" height="17.5" fill="white" transform="translate(18.6666)"/>
</clipPath>
</defs>
</svg>
