<svg width="35" height="35" viewBox="0 0 35 35" fill="none" xmlns="http://www.w3.org/2000/svg">
<path d="M17.5002 4C16.5915 4 15.8574 4.78203 15.8574 5.75V6.8C12.1096 7.60938 9.28594 11.1422 9.28594 15.375V16.7641C9.28594 19.2469 8.49018 21.6586 7.03728 23.5945L6.27232 24.6172C5.97456 25.0109 5.91808 25.5523 6.12344 26.0062C6.3288 26.4602 6.76005 26.75 7.23237 26.75H27.7681C28.2404 26.75 28.6717 26.4602 28.877 26.0062C29.0824 25.5523 29.0259 25.0109 28.7281 24.6172L27.9632 23.6C26.5103 21.6586 25.7145 19.2469 25.7145 16.7641V15.375C25.7145 11.1422 22.8909 7.60938 19.1431 6.8V5.75C19.1431 4.78203 18.4089 4 17.5002 4ZM17.5002 9.25C20.6781 9.25 23.2502 11.9898 23.2502 15.375V16.7641C23.2502 19.3836 23.9638 21.9375 25.2884 24.125H9.71206C11.0366 21.9375 11.7502 19.3836 11.7502 16.7641V15.375C11.7502 11.9898 14.3223 9.25 17.5002 9.25ZM20.7859 28.5H17.5002H14.2145C14.2145 29.4297 14.5585 30.3211 15.1746 30.9773C15.7906 31.6336 16.6275 32 17.5002 32C18.373 32 19.2098 31.6336 19.8259 30.9773C20.442 30.3211 20.7859 29.4297 20.7859 28.5Z" fill="white"/>
</svg>
