<svg width="20" height="20" viewBox="0 0 20 20" fill="none" xmlns="http://www.w3.org/2000/svg">
<path fill-rule="evenodd" clip-rule="evenodd" d="M10 20C15.5228 20 20 15.5228 20 10C20 4.47715 15.5228 0 10 0C4.47715 0 0 4.47715 0 10C0 15.5228 4.47715 20 10 20ZM11.3227 6.48327L11.3231 6.48159C11.5554 5.34086 10.7978 4.25947 9.67909 4.03973C8.56359 3.82064 7.45381 4.52942 7.2226 5.66183L7.22239 5.66287L7.17045 5.91563L7.16988 5.91847C7.06761 6.42371 6.78598 6.88168 6.36858 7.20982L6.20168 7.34048L6.19746 7.34382C5.44765 7.93745 5 8.83736 5 9.80181V12.2837C5 13.3412 5.53725 14.3237 6.4227 14.9037L7.2972 15.477L7.29892 15.4781C7.82124 15.819 8.43172 16 9.05682 16H11.2727C12.2952 16 13.1691 15.2641 13.3352 14.2722C13.7942 13.8949 14.0909 13.3243 14.0909 12.6788C14.0909 12.6663 14.0908 12.6538 14.0906 12.6413C14.5334 12.2643 14.8182 11.705 14.8182 11.0718C14.8182 10.8234 14.7739 10.5858 14.6934 10.366C14.8871 10.053 15 9.6838 15 9.28623C15 8.12549 14.0465 7.2149 12.9091 7.2149H11.154C11.1991 7.0574 11.2381 6.89775 11.2707 6.73627L11.2711 6.7346L11.3227 6.48327ZM8.15 6.11687L8.20227 5.86243C8.32045 5.28212 8.89545 4.90493 9.48636 5.02099C10.0773 5.13705 10.4614 5.70173 10.3432 6.28203L10.2909 6.53648C10.2442 6.76741 10.1822 6.99398 10.1056 7.2149C9.98452 7.56407 9.82707 7.89911 9.63636 8.2149H12.9091C13.5114 8.2149 14 8.69477 14 9.28623C14 9.37029 13.9901 9.45213 13.9714 9.53068C13.8982 9.83796 13.6901 10.0948 13.4114 10.237C13.6496 10.4259 13.8058 10.7118 13.8175 11.0331C13.8179 11.0459 13.8182 11.0588 13.8182 11.0718C13.8182 11.3129 13.7368 11.5355 13.5997 11.7145C13.4399 11.9232 13.2045 12.0726 12.9341 12.123C13.0341 12.286 13.0909 12.4757 13.0909 12.6788C13.0909 12.7441 13.0849 12.8081 13.0735 12.8702C13.0018 13.2602 12.7151 13.5772 12.3386 13.6966C12.3545 13.7702 12.3636 13.8483 12.3636 13.9287C12.3636 14.5201 11.875 15 11.2727 15H9.05682C8.625 15 8.20455 14.875 7.84545 14.6407L6.97045 14.0671C6.36364 13.6698 6 13.0002 6 12.2837V9.80181C6 9.15008 6.30227 8.5363 6.81818 8.12785L6.98636 7.99617C7.58864 7.52299 8 6.85788 8.15 6.11687Z" fill="white"/>
</svg>
