<svg width="65" height="65" viewBox="0 0 65 65" fill="none" xmlns="http://www.w3.org/2000/svg">
<rect width="65" height="65" rx="19" fill="url(#paint0_linear_40_816)"/>
<g clip-path="url(#clip0_40_816)">
<path d="M44.4691 29.25C46.4878 29.25 50 30.9492 50 33C50 35.1094 46.4878 36.75 44.4691 36.75H37.5865L31.6542 47.0566C31.3177 47.6426 30.692 48 30.0132 48H26.6958C26.0701 48 25.6156 47.4023 25.7868 46.8047L28.6792 36.75H22.6111L20.0611 40.125C19.884 40.3594 19.6007 40.5 19.3056 40.5H16.8264C16.366 40.5 16 40.1309 16 39.6797C16 39.6035 16.0118 39.5273 16.0295 39.4512L17.8889 33L16.0295 26.5488C16.0059 26.4727 16 26.3965 16 26.3203C16 25.8633 16.3719 25.5 16.8264 25.5H19.3056C19.6007 25.5 19.884 25.6406 20.0611 25.875L22.6111 29.25H28.6851L25.7927 19.1953C25.6156 18.5977 26.0701 18 26.6958 18H30.0132C30.692 18 31.3177 18.3633 31.6542 18.9434L37.5865 29.25H44.4691Z" fill="white"/>
</g>
<defs>
<linearGradient id="paint0_linear_40_816" x1="44" y1="11" x2="13.5" y2="103.5" gradientUnits="userSpaceOnUse">
<stop stop-color="#59D4FA"/>
<stop offset="1" stop-color="white"/>
</linearGradient>
<clipPath id="clip0_40_816">
<rect width="34" height="30" fill="white" transform="translate(16 18)"/>
</clipPath>
</defs>
</svg>
