<svg width="65" height="65" viewBox="0 0 65 65" fill="none" xmlns="http://www.w3.org/2000/svg">
<rect width="65" height="65" rx="19" fill="url(#paint0_linear_40_817)"/>
<path d="M32.55 20C31.8019 20 31.2 20.5971 31.2 21.3393C31.2 22.0815 31.8019 22.6786 32.55 22.6786H33.9956L35.9419 26.25H27.5381L25.9969 24.1295C25.7437 23.7779 25.3331 23.5714 24.9 23.5714H21.75C21.0019 23.5714 20.4 24.1685 20.4 24.9107C20.4 25.6529 21.0019 26.25 21.75 26.25H24.2081L25.4513 27.9632L23.955 30.9263C23.3925 30.7868 22.8019 30.7143 22.2 30.7143C18.2231 30.7143 15 33.9118 15 37.8571C15 41.8025 18.2231 45 22.2 45C25.8731 45 28.8994 42.2712 29.3438 38.75H32.1C32.5781 38.75 33.0169 38.4989 33.2644 38.0915L38.0344 30.0837L39.255 32.3214C37.635 33.6328 36.6 35.625 36.6 37.8571C36.6 41.8025 39.8231 45 43.8 45C47.7769 45 51 41.8025 51 37.8571C51 33.9118 47.7769 30.7143 43.8 30.7143C43.0406 30.7143 42.3094 30.8315 41.6231 31.0491L36.1162 20.9375C35.8012 20.3571 35.1938 20 34.53 20H32.55ZM40.7962 35.1618L42.6131 38.4933C42.9675 39.1462 43.7887 39.3862 44.4412 39.0346C45.0938 38.683 45.3412 37.8683 44.9869 37.221L43.17 33.8895C43.3725 33.856 43.5862 33.8393 43.8 33.8393C46.0387 33.8393 47.85 35.6362 47.85 37.8571C47.85 40.0781 46.0387 41.875 43.8 41.875C41.5612 41.875 39.75 40.0781 39.75 37.8571C39.75 36.8192 40.1437 35.8761 40.7962 35.1618ZM22.4925 38.75H26.1487C25.7381 40.5413 24.1237 41.875 22.2 41.875C19.9612 41.875 18.15 40.0781 18.15 37.8571C18.15 35.6362 19.9612 33.8393 22.2 33.8393C22.2956 33.8393 22.3913 33.8449 22.4869 33.8504L21.1256 36.5569C20.6194 37.567 21.3562 38.7556 22.4925 38.7556V38.75ZM24.3881 36.0714L27.24 30.4185L31.3406 36.0658L31.335 36.0714H24.3825H24.3881ZM29.4844 28.9286H35.5819L32.8312 33.5491L29.4787 28.9286H29.4844Z" fill="white"/>
<defs>
<linearGradient id="paint0_linear_40_817" x1="44" y1="11" x2="13.5" y2="103.5" gradientUnits="userSpaceOnUse">
<stop stop-color="#59D4FA"/>
<stop offset="1" stop-color="white"/>
</linearGradient>
</defs>
</svg>
