<svg width="140" height="113" viewBox="0 0 140 113" fill="none" xmlns="http://www.w3.org/2000/svg">
<g clip-path="url(#clip0_28_66)">
<path d="M101.059 80.1369C107.632 70.7279 101.892 55.3663 88.2378 45.8259C74.5839 36.2855 58.1868 36.179 51.614 45.588C45.0411 54.9971 50.7815 70.3586 64.4355 79.899C78.0894 89.4394 94.4865 89.5459 101.059 80.1369Z" fill="white"/>
<path d="M22.4992 61.0378H4.37354C1.9581 61.0378 0 62.9961 0 65.4118C0 67.8275 1.9581 69.7859 4.37354 69.7859H22.4992C24.9146 69.7859 26.8727 67.8275 26.8727 65.4118C26.8727 62.9961 24.9146 61.0378 22.4992 61.0378Z" fill="white"/>
<path d="M135.626 61.0378H117.501C115.085 61.0378 113.127 62.9961 113.127 65.4118C113.127 67.8275 115.085 69.7859 117.501 69.7859H135.626C138.042 69.7859 140 67.8275 140 65.4118C140 62.9961 138.042 61.0378 135.626 61.0378Z" fill="white"/>
<path d="M110.845 19.3406L98.0282 32.1588C96.3203 33.867 96.3203 36.6365 98.0282 38.3447C99.7362 40.0528 102.505 40.0528 104.213 38.3447L117.03 25.5264C118.738 23.8183 118.738 21.0488 117.03 19.3406C115.322 17.6324 112.553 17.6324 110.845 19.3406Z" fill="white"/>
<path d="M65.5914 4.36234V22.4901C65.5914 24.9058 67.5495 26.8641 69.9649 26.8641C72.3803 26.8641 74.3384 24.9058 74.3384 22.4901V4.36234C74.3384 1.94663 72.3803 -0.0116978 69.9649 -0.0116978C67.5495 -0.0116978 65.5914 1.94663 65.5914 4.36234Z" fill="white"/>
<path d="M22.3298 25.5306L35.1465 38.3489C36.8545 40.057 39.6237 40.057 41.3316 38.3489C43.0396 36.6407 43.0396 33.8712 41.3316 32.163L28.5149 19.3448C26.8069 17.6366 24.0378 17.6366 22.3298 19.3448C20.6218 21.053 20.6218 23.8225 22.3298 25.5306Z" fill="white"/>
<path d="M40.4143 59.646C40.4143 59.646 28.9659 91.9368 53.6402 107.573C75.2857 121.28 93.2359 106.439 98.5566 91.7262C72.7013 98.451 55.2305 88.9077 40.4026 59.646H40.4143Z" fill="white"/>
</g>
<defs>
<clipPath id="clip0_28_66">
<rect width="140" height="113" fill="white"/>
</clipPath>
</defs>
</svg>
